<?xml version="1.0" encoding="UTF-8" standalone="no"?><!DOCTYPE svg PUBLIC "-//W3C//DTD SVG 1.1//EN" "http://www.w3.org/Graphics/SVG/1.1/DTD/svg11.dtd"><svg width="100%" height="100%" viewBox="0 0 100 100" version="1.1" xmlns="http://www.w3.org/2000/svg" xmlns:xlink="http://www.w3.org/1999/xlink" xml:space="preserve" style="fill-rule:evenodd;clip-rule:evenodd;stroke-linejoin:round;stroke-miterlimit:2;"><path d="M25,6.699c23.899,-13.798 54.503,-5.598 68.301,18.301c13.798,23.899 5.598,54.503 -18.301,68.301c-23.899,13.798 -54.503,5.598 -68.301,-18.301c-13.798,-23.899 -5.598,-54.503 18.301,-68.301Zm-2.978,69.652c11.938,12.689 31.456,16.013 47.192,6.928c15.735,-9.085 22.615,-27.65 17.596,-44.333l-64.788,37.405Zm55.956,-52.702c-11.938,-12.689 -31.456,-16.013 -47.192,-6.928c-15.735,9.085 -22.615,27.65 -17.596,44.333l64.788,-37.405Z" style="fill:#f00;"/><g><path d="M28.384,61.308c0.51,-0.155 0.984,-0.14 1.422,0.042c0.438,0.183 0.78,0.488 1.027,0.917c0.377,0.653 0.452,1.281 0.225,1.885c-0.227,0.604 -0.744,1.139 -1.552,1.605l-3.908,2.257l-4.305,-7.458l3.802,-2.195c0.759,-0.438 1.451,-0.618 2.077,-0.539c0.626,0.079 1.121,0.434 1.486,1.066c0.251,0.435 0.349,0.868 0.293,1.298c-0.056,0.431 -0.245,0.804 -0.567,1.122Zm-3.074,0.805l0.906,-0.523c0.21,-0.121 0.342,-0.254 0.395,-0.397c0.053,-0.143 0.029,-0.302 -0.072,-0.478c-0.105,-0.182 -0.234,-0.288 -0.387,-0.317c-0.152,-0.029 -0.334,0.017 -0.545,0.139l-0.905,0.523l0.608,1.053Zm2.608,2.061c0.211,-0.121 0.344,-0.252 0.399,-0.391c0.055,-0.14 0.03,-0.301 -0.075,-0.483c-0.207,-0.359 -0.518,-0.418 -0.932,-0.179l-1.064,0.614l0.608,1.054l1.064,-0.615Z" style="fill-rule:nonzero;stroke:#fff;stroke-width:2px;"/><path d="M36.809,57.511c0.093,0.161 0.172,0.322 0.236,0.481l-3.76,2.171c0.331,0.493 0.693,0.625 1.086,0.398c0.253,-0.146 0.369,-0.367 0.347,-0.664l2.475,-1.429c0.159,0.47 0.2,0.95 0.122,1.44c-0.078,0.489 -0.266,0.949 -0.565,1.38c-0.3,0.43 -0.695,0.787 -1.187,1.071c-0.59,0.34 -1.185,0.52 -1.787,0.54c-0.602,0.02 -1.164,-0.126 -1.686,-0.438c-0.522,-0.312 -0.961,-0.777 -1.318,-1.395c-0.357,-0.618 -0.54,-1.231 -0.549,-1.839c-0.009,-0.608 0.145,-1.167 0.463,-1.679c0.318,-0.511 0.772,-0.937 1.362,-1.277c0.59,-0.341 1.185,-0.523 1.785,-0.546c0.6,-0.024 1.157,0.116 1.673,0.417c0.516,0.301 0.95,0.758 1.303,1.369Zm-2.692,0.81c-0.114,-0.197 -0.263,-0.31 -0.448,-0.339c-0.186,-0.028 -0.373,0.012 -0.563,0.121c-0.414,0.24 -0.541,0.58 -0.38,1.02l1.391,-0.802Z" style="fill-rule:nonzero;stroke:#fff;stroke-width:2px;"/><path d="M40.416,56.874l2.476,-1.429l1.118,1.938l-5.034,2.907l-1.059,-1.832l1.012,-3.478l-2.233,1.289l-1.119,-1.938l4.898,-2.827l1.058,1.832l-1.117,3.538Z" style="fill-rule:nonzero;stroke:#fff;stroke-width:2px;"/><path d="M44.015,48.828c-0.408,0.235 -0.797,0.315 -1.168,0.239c-0.372,-0.076 -0.653,-0.279 -0.843,-0.609c-0.195,-0.337 -0.233,-0.687 -0.115,-1.05c0.118,-0.363 0.38,-0.662 0.788,-0.897c0.4,-0.231 0.787,-0.307 1.16,-0.228c0.374,0.079 0.658,0.288 0.852,0.625c0.191,0.33 0.226,0.674 0.106,1.034c-0.12,0.36 -0.38,0.655 -0.78,0.886Zm1.432,-0.195l3.43,5.941l-2.339,1.35l-3.429,-5.941l2.338,-1.35Z" style="fill-rule:nonzero;stroke:#fff;stroke-width:2px;"/><path d="M53.733,51.77l-2.833,-1.524l1.369,2.37l-2.339,1.35l-4.5,-7.795l2.338,-1.35l2.354,4.076l0.202,-3.08l2.717,-1.569l-0.495,4.275l3.978,1.636l-2.791,1.611Z" style="fill-rule:nonzero;stroke:#fff;stroke-width:2px;"/><path d="M59.916,48.299c-0.597,0.344 -1.205,0.532 -1.824,0.561c-0.62,0.03 -1.197,-0.107 -1.733,-0.411c-0.536,-0.303 -0.983,-0.764 -1.339,-1.382c-0.357,-0.618 -0.533,-1.235 -0.528,-1.851c0.005,-0.616 0.175,-1.185 0.51,-1.706c0.336,-0.522 0.802,-0.955 1.399,-1.3c0.597,-0.344 1.205,-0.531 1.824,-0.561c0.62,-0.03 1.198,0.107 1.733,0.411c0.536,0.303 0.983,0.764 1.339,1.382c0.357,0.618 0.533,1.235 0.528,1.851c-0.004,0.616 -0.175,1.185 -0.51,1.707c-0.336,0.521 -0.802,0.954 -1.399,1.299Zm-1.168,-2.023c0.218,-0.125 0.351,-0.317 0.399,-0.574c0.048,-0.257 -0.025,-0.554 -0.22,-0.891c-0.194,-0.337 -0.415,-0.549 -0.662,-0.636c-0.246,-0.087 -0.479,-0.068 -0.696,0.058c-0.218,0.125 -0.351,0.317 -0.399,0.574c-0.048,0.257 0.025,0.554 0.22,0.891c0.194,0.338 0.413,0.551 0.656,0.639c0.244,0.089 0.478,0.069 0.702,-0.061Z" style="fill-rule:nonzero;stroke:#fff;stroke-width:2px;"/><path d="M64.456,37.602c0.681,-0.393 1.345,-0.472 1.991,-0.237c0.646,0.236 1.195,0.743 1.645,1.523l1.988,3.444l-2.328,1.344l-1.818,-3.149c-0.162,-0.281 -0.366,-0.461 -0.613,-0.538c-0.246,-0.078 -0.495,-0.044 -0.748,0.102c-0.26,0.15 -0.416,0.35 -0.468,0.6c-0.052,0.25 0.003,0.516 0.165,0.796l1.818,3.15l-2.338,1.35l-3.43,-5.941l2.338,-1.35l0.523,0.906c0.021,-0.386 0.133,-0.755 0.337,-1.107c0.204,-0.352 0.517,-0.65 0.938,-0.893Z" style="fill-rule:nonzero;stroke:#fff;stroke-width:2px;"/><path d="M74.371,31.934l1.27,10.98l-2.56,1.478l-0.317,-4.003l-5.734,-4.217l2.601,-1.502l2.856,2.368l-0.696,-3.614l2.58,-1.49Z" style="fill-rule:nonzero;stroke:#fff;stroke-width:2px;"/></g><g><path d="M28.384,61.308c0.51,-0.155 0.984,-0.14 1.422,0.042c0.438,0.183 0.78,0.488 1.027,0.917c0.377,0.653 0.452,1.281 0.225,1.885c-0.227,0.604 -0.744,1.139 -1.552,1.605l-3.908,2.257l-4.305,-7.458l3.802,-2.195c0.759,-0.438 1.451,-0.618 2.077,-0.539c0.626,0.079 1.121,0.434 1.486,1.066c0.251,0.435 0.349,0.868 0.293,1.298c-0.056,0.431 -0.245,0.804 -0.567,1.122Zm-3.074,0.805l0.906,-0.523c0.21,-0.121 0.342,-0.254 0.395,-0.397c0.053,-0.143 0.029,-0.302 -0.072,-0.478c-0.105,-0.182 -0.234,-0.288 -0.387,-0.317c-0.152,-0.029 -0.334,0.017 -0.545,0.139l-0.905,0.523l0.608,1.053Zm2.608,2.061c0.211,-0.121 0.344,-0.252 0.399,-0.391c0.055,-0.14 0.03,-0.301 -0.075,-0.483c-0.207,-0.359 -0.518,-0.418 -0.932,-0.179l-1.064,0.614l0.608,1.054l1.064,-0.615Z" style="fill-rule:nonzero;"/><path d="M36.809,57.511c0.093,0.161 0.172,0.322 0.236,0.481l-3.76,2.171c0.331,0.493 0.693,0.625 1.086,0.398c0.253,-0.146 0.369,-0.367 0.347,-0.664l2.475,-1.429c0.159,0.47 0.2,0.95 0.122,1.44c-0.078,0.489 -0.266,0.949 -0.565,1.38c-0.3,0.43 -0.695,0.787 -1.187,1.071c-0.59,0.34 -1.185,0.52 -1.787,0.54c-0.602,0.02 -1.164,-0.126 -1.686,-0.438c-0.522,-0.312 -0.961,-0.777 -1.318,-1.395c-0.357,-0.618 -0.54,-1.231 -0.549,-1.839c-0.009,-0.608 0.145,-1.167 0.463,-1.679c0.318,-0.511 0.772,-0.937 1.362,-1.277c0.59,-0.341 1.185,-0.523 1.785,-0.546c0.6,-0.024 1.157,0.116 1.673,0.417c0.516,0.301 0.95,0.758 1.303,1.369Zm-2.692,0.81c-0.114,-0.197 -0.263,-0.31 -0.448,-0.339c-0.186,-0.028 -0.373,0.012 -0.563,0.121c-0.414,0.24 -0.541,0.58 -0.38,1.02l1.391,-0.802Z" style="fill-rule:nonzero;"/><path d="M40.416,56.874l2.476,-1.429l1.118,1.938l-5.034,2.907l-1.059,-1.832l1.012,-3.478l-2.233,1.289l-1.119,-1.938l4.898,-2.827l1.058,1.832l-1.117,3.538Z" style="fill-rule:nonzero;"/><path d="M44.015,48.828c-0.408,0.235 -0.797,0.315 -1.168,0.239c-0.372,-0.076 -0.653,-0.279 -0.843,-0.609c-0.195,-0.337 -0.233,-0.687 -0.115,-1.05c0.118,-0.363 0.38,-0.662 0.788,-0.897c0.4,-0.231 0.787,-0.307 1.16,-0.228c0.374,0.079 0.658,0.288 0.852,0.625c0.191,0.33 0.226,0.674 0.106,1.034c-0.12,0.36 -0.38,0.655 -0.78,0.886Zm1.432,-0.195l3.43,5.941l-2.339,1.35l-3.429,-5.941l2.338,-1.35Z" style="fill-rule:nonzero;"/><path d="M53.733,51.77l-2.833,-1.524l1.369,2.37l-2.339,1.35l-4.5,-7.795l2.338,-1.35l2.354,4.076l0.202,-3.08l2.717,-1.569l-0.495,4.275l3.978,1.636l-2.791,1.611Z" style="fill-rule:nonzero;"/><path d="M59.916,48.299c-0.597,0.344 -1.205,0.532 -1.824,0.561c-0.62,0.03 -1.197,-0.107 -1.733,-0.411c-0.536,-0.303 -0.983,-0.764 -1.339,-1.382c-0.357,-0.618 -0.533,-1.235 -0.528,-1.851c0.005,-0.616 0.175,-1.185 0.51,-1.706c0.336,-0.522 0.802,-0.955 1.399,-1.3c0.597,-0.344 1.205,-0.531 1.824,-0.561c0.62,-0.03 1.198,0.107 1.733,0.411c0.536,0.303 0.983,0.764 1.339,1.382c0.357,0.618 0.533,1.235 0.528,1.851c-0.004,0.616 -0.175,1.185 -0.51,1.707c-0.336,0.521 -0.802,0.954 -1.399,1.299Zm-1.168,-2.023c0.218,-0.125 0.351,-0.317 0.399,-0.574c0.048,-0.257 -0.025,-0.554 -0.22,-0.891c-0.194,-0.337 -0.415,-0.549 -0.662,-0.636c-0.246,-0.087 -0.479,-0.068 -0.696,0.058c-0.218,0.125 -0.351,0.317 -0.399,0.574c-0.048,0.257 0.025,0.554 0.22,0.891c0.194,0.338 0.413,0.551 0.656,0.639c0.244,0.089 0.478,0.069 0.702,-0.061Z" style="fill-rule:nonzero;"/><path d="M64.456,37.602c0.681,-0.393 1.345,-0.472 1.991,-0.237c0.646,0.236 1.195,0.743 1.645,1.523l1.988,3.444l-2.328,1.344l-1.818,-3.149c-0.162,-0.281 -0.366,-0.461 -0.613,-0.538c-0.246,-0.078 -0.495,-0.044 -0.748,0.102c-0.26,0.15 -0.416,0.35 -0.468,0.6c-0.052,0.25 0.003,0.516 0.165,0.796l1.818,3.15l-2.338,1.35l-3.43,-5.941l2.338,-1.35l0.523,0.906c0.021,-0.386 0.133,-0.755 0.337,-1.107c0.204,-0.352 0.517,-0.65 0.938,-0.893Z" style="fill-rule:nonzero;"/><path d="M74.371,31.934l1.27,10.98l-2.56,1.478l-0.317,-4.003l-5.734,-4.217l2.601,-1.502l2.856,2.368l-0.696,-3.614l2.58,-1.49Z" style="fill-rule:nonzero;"/></g></svg>